<svg xmlns="http://www.w3.org/2000/svg" viewBox="0 0 1200 630" width="1200" height="630" role="img"><defs><linearGradient id="bg" x1="0" y1="0" x2="1" y2="1"><stop offset="0" stop-color="#FCF6EF"/><stop offset="1" stop-color="#F9E8E3"/></linearGradient></defs>
<rect width="1200" height="630" fill="url(#bg)"/>
<circle cx="1020" cy="75.6" r="264.59999999999997" fill="#E8928E" opacity="0.13"/>
<circle cx="96" cy="598.5" r="214.20000000000002" fill="#EBDCE6" opacity="0.7"/>
<g transform="translate(285 31.5) scale(1.05)"><rect x="60" y="330" width="360" height="64" rx="10" fill="#5A2A4C" stroke="#fff" stroke-width="4"/><rect x="82" y="354" width="180" height="12" rx="6" fill="rgba(255,255,255,0.75)"/><rect x="90" y="262" width="320" height="64" rx="10" fill="#E8928E" stroke="#fff" stroke-width="4"/><rect x="112" y="286" width="160" height="12" rx="6" fill="rgba(255,255,255,0.75)"/><rect x="70" y="194" width="340" height="64" rx="10" fill="#5E8262" stroke="#fff" stroke-width="4"/><rect x="92" y="218" width="170" height="12" rx="6" fill="rgba(255,255,255,0.75)"/><path d="M360 140 q-12 -110 90 -110 q102 0 90 110" fill="none" stroke="#5A2A4C" stroke-width="16" stroke-linecap="round"/><rect x="340" y="130" width="46" height="84" rx="22" fill="#5A2A4C" stroke="#fff" stroke-width="4"/><rect x="514" y="130" width="46" height="84" rx="22" fill="#5A2A4C" stroke="#fff" stroke-width="4"/><ellipse cx="450" cy="302.72" rx="13.2" ry="24.200000000000003" fill="#E8928E" opacity="0.92" transform="rotate(0 450 330)"/><ellipse cx="450" cy="302.72" rx="13.2" ry="24.200000000000003" fill="#E8928E" opacity="0.92" transform="rotate(45 450 330)"/><ellipse cx="450" cy="302.72" rx="13.2" ry="24.200000000000003" fill="#E8928E" opacity="0.92" transform="rotate(90 450 330)"/><ellipse cx="450" cy="302.72" rx="13.2" ry="24.200000000000003" fill="#E8928E" opacity="0.92" transform="rotate(135 450 330)"/><ellipse cx="450" cy="302.72" rx="13.2" ry="24.200000000000003" fill="#E8928E" opacity="0.92" transform="rotate(180 450 330)"/><ellipse cx="450" cy="302.72" rx="13.2" ry="24.200000000000003" fill="#E8928E" opacity="0.92" transform="rotate(225 450 330)"/><ellipse cx="450" cy="302.72" rx="13.2" ry="24.200000000000003" fill="#E8928E" opacity="0.92" transform="rotate(270 450 330)"/><ellipse cx="450" cy="302.72" rx="13.2" ry="24.200000000000003" fill="#E8928E" opacity="0.92" transform="rotate(315 450 330)"/><circle cx="450" cy="330" r="12.32" fill="#E9C98F"/></g></svg>