<svg xmlns="http://www.w3.org/2000/svg" viewBox="0 0 1200 630" width="1200" height="630" role="img"><defs><linearGradient id="bg" x1="0" y1="0" x2="1" y2="1"><stop offset="0" stop-color="#FCF6EF"/><stop offset="1" stop-color="#F9E8E3"/></linearGradient></defs>
<rect width="1200" height="630" fill="url(#bg)"/>
<circle cx="1020" cy="75.6" r="264.59999999999997" fill="#E8928E" opacity="0.13"/>
<circle cx="96" cy="598.5" r="214.20000000000002" fill="#EBDCE6" opacity="0.7"/>
<g transform="translate(285 31.5) scale(1.05)"><rect x="190" y="150" width="220" height="220" rx="52" fill="#FFFAF6" stroke="#fff" stroke-width="6"/><rect x="190" y="150" width="220" height="220" rx="52" fill="none" stroke="#EFDDD6" stroke-width="2"/><ellipse cx="300" cy="198" rx="30" ry="55.00000000000001" fill="#7C4B6D" opacity="0.92" transform="rotate(0 300 260)"/><ellipse cx="300" cy="198" rx="30" ry="55.00000000000001" fill="#7C4B6D" opacity="0.92" transform="rotate(45 300 260)"/><ellipse cx="300" cy="198" rx="30" ry="55.00000000000001" fill="#7C4B6D" opacity="0.92" transform="rotate(90 300 260)"/><ellipse cx="300" cy="198" rx="30" ry="55.00000000000001" fill="#7C4B6D" opacity="0.92" transform="rotate(135 300 260)"/><ellipse cx="300" cy="198" rx="30" ry="55.00000000000001" fill="#7C4B6D" opacity="0.92" transform="rotate(180 300 260)"/><ellipse cx="300" cy="198" rx="30" ry="55.00000000000001" fill="#7C4B6D" opacity="0.92" transform="rotate(225 300 260)"/><ellipse cx="300" cy="198" rx="30" ry="55.00000000000001" fill="#7C4B6D" opacity="0.92" transform="rotate(270 300 260)"/><ellipse cx="300" cy="198" rx="30" ry="55.00000000000001" fill="#7C4B6D" opacity="0.92" transform="rotate(315 300 260)"/><circle cx="300" cy="260" r="28.000000000000004" fill="#E9C98F"/><rect x="60" y="90" width="168" height="46" rx="23" fill="#FBE1DD" stroke="#fff" stroke-width="3"/><text x="78" y="120" font-family="'Helvetica Neue', Arial, sans-serif" font-weight="700" font-size="20" fill="#3A2235">day counter</text><rect x="360" y="120" width="168" height="46" rx="23" fill="#E4EEE1" stroke="#fff" stroke-width="3"/><text x="378" y="150" font-family="'Helvetica Neue', Arial, sans-serif" font-weight="700" font-size="20" fill="#3A2235">money saved</text><rect x="40" y="380" width="168" height="46" rx="23" fill="#EBDCE6" stroke="#fff" stroke-width="3"/><text x="58" y="410" font-family="'Helvetica Neue', Arial, sans-serif" font-weight="700" font-size="20" fill="#3A2235">craving SOS</text><rect x="330" y="400" width="216" height="46" rx="23" fill="#F9E8E3" stroke="#fff" stroke-width="3"/><text x="348" y="430" font-family="'Helvetica Neue', Arial, sans-serif" font-weight="700" font-size="20" fill="#3A2235">private journal</text></g></svg>